<svg width="24" height="24" viewBox="0 0 24 24" fill="none" xmlns="http://www.w3.org/2000/svg">
<path d="M3.59998 19.2002V16.9002H5.69998V10.1002C5.69998 8.7002 6.09997 7.4002 6.99997 6.3002C7.89997 5.2002 8.99996 4.4002 10.3 4.1002V3.4002C10.3 3.0002 10.5 2.6002 10.8 2.2002C11.1 1.9002 11.5 1.7002 12 1.7002C12.5 1.7002 12.8 1.9002 13.2 2.2002C13.5 2.5002 13.7 2.9002 13.7 3.4002V4.1002C15.1 4.4002 16.2 5.2002 17.1 6.3002C18 7.4002 18.4 8.7002 18.4 10.1002V16.9002H20.5V19.2002H3.59998ZM12 22.2002C11.4 22.2002 10.9 22.0002 10.5 21.6002C10.1 21.2002 9.89996 20.7002 9.89996 20.1002H14.1C14.1 20.7002 13.9 21.2002 13.5 21.6002C13.1 22.0002 12.6 22.2002 12 22.2002ZM7.99997 16.9002H16V10.1002C16 9.0002 15.6 8.1002 14.8 7.3002C14 6.5002 13.1 6.1002 12 6.1002C10.9 6.1002 9.99998 6.5002 9.19998 7.3002C8.39998 8.1002 7.99997 9.0002 7.99997 10.1002V16.9002Z" fill="white"/>
<path d="M1.60054 9.9998C1.60025 10.0331 1.6001 10.0664 1.6001 10.0998V9.9998H1.60054C1.6136 8.53749 1.91344 7.16865 2.50009 5.7998C3.10009 4.4998 4.0001 3.2998 5.1001 2.2998L6.6001 3.7998C5.7001 4.5998 5.00009 5.4998 4.50009 6.5998C4.00009 7.6998 3.7001 8.7998 3.7001 9.9998H1.60054Z" fill="#FCC225"/>
<path d="M19.4001 6.6998C20.0001 7.6998 20.2001 8.8998 20.2001 10.0998V10.1998H22.3001C22.3001 8.6998 22.0001 7.1998 21.4001 5.8998C20.8001 4.5998 19.9001 3.3998 18.8001 2.3998L17.3001 3.8998C18.2001 4.6998 18.8001 5.6998 19.4001 6.6998Z" fill="#FCC225"/>
</svg>
