<svg width="24" height="24" viewBox="0 0 24 24" fill="none" xmlns="http://www.w3.org/2000/svg">
<path d="M3.59998 19.1001V16.8001H5.69998V10.0001C5.69998 8.6001 6.09997 7.3001 6.99997 6.2001C7.89997 5.1001 8.99996 4.3001 10.3 4.0001V3.30009C10.3 2.80009 10.5 2.5001 10.8 2.1001C11.1 1.8001 11.5 1.6001 12 1.6001C12.5 1.6001 12.8 1.8001 13.2 2.1001C13.5 2.4001 13.7 2.80009 13.7 3.30009V4.0001C15.1 4.3001 16.2 5.1001 17.1 6.2001C18 7.3001 18.4 8.6001 18.4 10.0001V16.8001H20.5V19.1001H3.59998ZM12 22.2001C11.4 22.2001 10.9 22.0001 10.5 21.6001C10.1 21.2001 9.89996 20.7001 9.89996 20.2001H14.1C14.1 20.8001 13.9 21.2001 13.5 21.6001C13.1 22.0001 12.6 22.2001 12 22.2001ZM7.99997 16.9001H16V10.1001C16 9.0001 15.6 8.10009 14.8 7.30009C14 6.50009 13.1 6.1001 12 6.1001C10.9 6.1001 9.99998 6.50009 9.19998 7.30009C8.39998 8.10009 7.99997 9.0001 7.99997 10.1001V16.9001Z" fill="white"/>
</svg>
