<svg width="165" height="180" viewBox="0 0 165 180" fill="none" xmlns="http://www.w3.org/2000/svg">
<mask id="mask0_2_282" style="mask-type:alpha" maskUnits="userSpaceOnUse" x="0" y="0" width="165" height="180">
<path fill-rule="evenodd" clip-rule="evenodd" d="M0.34375 0H164.295V180H0.34375V0Z" fill="white"/>
</mask>
<g mask="url(#mask0_2_282)">
<path fill-rule="evenodd" clip-rule="evenodd" d="M31.1365 3.67465H0.304688V180H159.821V153.98H31.1365V3.67465Z" fill="#FFFFFE"/>
<path fill-rule="evenodd" clip-rule="evenodd" d="M141.211 46.24C153.957 46.2432 164.291 35.8954 164.295 23.1264C164.299 10.3575 153.97 0.00387594 141.224 1.08782e-06C128.479 -0.00387377 118.144 10.3446 118.141 23.1135C118.141 23.1155 118.141 23.118 118.141 23.12C118.141 35.8863 128.469 46.2361 141.211 46.24Z" fill="#FFFFFE"/>
</g>
<path fill-rule="evenodd" clip-rule="evenodd" d="M49.5293 135H156.097V108.525H80.5136V4.09091H49.5293V135Z" fill="#FFFFFE"/>
</svg>
