<?xml version="1.0" standalone="no"?>
<!DOCTYPE svg PUBLIC "-//W3C//DTD SVG 20010904//EN"
 "http://www.w3.org/TR/2001/REC-SVG-20010904/DTD/svg10.dtd">
<svg version="1.0" xmlns="http://www.w3.org/2000/svg"
 width="171.000000pt" height="180.000000pt" viewBox="0 0 171.000000 180.000000"
 preserveAspectRatio="xMidYMid meet">

<g transform="translate(0.000000,180.000000) scale(0.100000,-0.100000)"
fill="#0870EA" stroke="none">
<path d="M1297 1586 c-143 -52 -159 -243 -28 -313 53 -28 102 -29 157 -4 100
45 130 169 63 262 -37 52 -129 78 -192 55z"/>
<path d="M680 1080 l0 -490 405 0 405 0 0 95 0 95 -290 0 -290 0 0 395 0 395
-115 0 -115 0 0 -490z"/>
<path d="M250 895 l0 -665 620 0 620 0 0 95 0 95 -500 0 -500 0 0 570 0 570
-120 0 -120 0 0 -665z"/>
</g>
</svg>
